  0
SECTION
  2
HEADER
  9
$ACADVER
  1
AC1014
  9
$HANDSEED
  5
FFFF
  9
$MEASUREMENT
 70
     1
  0
ENDSEC
  0
SECTION
  2
TABLES
  0
TABLE
  2
VPORT
  5
8
330
0
100
AcDbSymbolTable
 70
     4
  0
VPORT
  5
2E
330
8
100
AcDbSymbolTableRecord
100
AcDbViewportTableRecord
  2
*ACTIVE
 70
     0
 10
0.0
 20
0.0
 11
1.0
 21
1.0
 12
210.0
 22
148.5
 13
0.0
 23
0.0
 14
10.0
 24
10.0
 15
10.0
 25
10.0
 16
0.0
 26
0.0
 36
1.0
 17
0.0
 27
0.0
 37
0.0
 40
341.0
 41
1.24
 42
50.0
 43
0.0
 44
0.0
 50
0.0
 51
0.0
 71
     0
 72
   100
 73
     1
 74
     3
 75
     0
 76
     0
 77
     0
 78
     0
  0
ENDTAB
  0
TABLE
  2
LTYPE
  5
5
330
0
100
AcDbSymbolTable
 70
     1
  0
LTYPE
  5
14
330
5
100
AcDbSymbolTableRecord
100
AcDbLinetypeTableRecord
  2
BYBLOCK
 70
     0
  3

 72
    65
 73
     0
 40
0.0
  0
LTYPE
  5
15
330
5
100
AcDbSymbolTableRecord
100
AcDbLinetypeTableRecord
  2
BYLAYER
 70
     0
  3

 72
    65
 73
     0
 40
0.0
  0
LTYPE
  5
16
330
5
100
AcDbSymbolTableRecord
100
AcDbLinetypeTableRecord
  2
CONTINUOUS
 70
     0
  3
Solid line
 72
    65
 73
     0
 40
0.0
  0
ENDTAB
  0
TABLE
  2
LAYER
  5
2
100
AcDbSymbolTable
 70
1
  0
LAYER
  5
50
100
AcDbSymbolTableRecord
100
AcDbLayerTableRecord
  2
0
 70
0
  6
CONTINUOUS
  0
ENDTAB
  0
TABLE
  2
STYLE
  5
3
330
0
100
AcDbSymbolTable
 70
     1
  0
STYLE
  5
11
330
3
100
AcDbSymbolTableRecord
100
AcDbTextStyleTableRecord
  2
STANDARD
 70
     0
 40
0.0
 41
1.0
 50
0.0
 71
     0
 42
2.5
  3
txt
  4

  0
ENDTAB
  0
TABLE
  2
VIEW
  5
6
330
0
100
AcDbSymbolTable
 70
     0
  0
ENDTAB
  0
TABLE
  2
UCS
  5
7
330
0
100
AcDbSymbolTable
 70
     0
  0
ENDTAB
  0
TABLE
  2
APPID
  5
9
330
0
100
AcDbSymbolTable
 70
     2
  0
APPID
  5
12
330
9
100
AcDbSymbolTableRecord
100
AcDbRegAppTableRecord
  2
ACAD
 70
     0
  0
ENDTAB
  0
TABLE
  2
DIMSTYLE
  5
A
330
0
100
AcDbSymbolTable
 70
     1
  0
DIMSTYLE
105
27
330
A
100
AcDbSymbolTableRecord
100
AcDbDimStyleTableRecord
  2
ISO-25
 70
     0
  3

  4

  5

  6

  7

 40
1.0
 41
2.5
 42
0.625
 43
3.75
 44
1.25
 45
0.0
 46
0.0
 47
0.0
 48
0.0
140
2.5
141
2.5
142
0.0
143
0.03937007874016
144
1.0
145
0.0
146
1.0
147
0.625
 71
     0
 72
     0
 73
     0
 74
     0
 75
     0
 76
     0
 77
     1
 78
     8
170
     0
171
     3
172
     1
173
     0
174
     0
175
     0
176
     0
177
     0
178
     0
270
     2
271
     2
272
     2
273
     2
274
     3
340
11
275
     0
280
     0
281
     0
282
     0
283
     0
284
     8
285
     0
286
     0
287
     3
288
     0
  0
ENDTAB
  0
TABLE
  2
BLOCK_RECORD
  5
1
330
0
100
AcDbSymbolTable
 70
     1
  0
BLOCK_RECORD
  5
1F
330
1
100
AcDbSymbolTableRecord
100
AcDbBlockTableRecord
  2
*MODEL_SPACE
  0
BLOCK_RECORD
  5
1B
330
1
100
AcDbSymbolTableRecord
100
AcDbBlockTableRecord
  2
*PAPER_SPACE
  0
ENDTAB
  0
ENDSEC
  0
SECTION
  2
BLOCKS
  0
BLOCK
  5
20
330
1F
100
AcDbEntity
  8
0
100
AcDbBlockBegin
  2
*MODEL_SPACE
 70
     0
 10
0.0
 20
0.0
 30
0.0
  3
*MODEL_SPACE
  1

  0
ENDBLK
  5
21
330
1F
100
AcDbEntity
  8
0
100
AcDbBlockEnd
  0
BLOCK
  5
1C
330
1B
100
AcDbEntity
 67
     1
  8
0
100
AcDbBlockBegin
  2
*PAPER_SPACE
  1

  0
ENDBLK
  5
1D
330
1B
100
AcDbEntity
 67
     1
  8
0
100
AcDbBlockEnd
  0
ENDSEC
  0
SECTION
  2
ENTITIES
  0
LWPOLYLINE
  5
100
100
AcDbEntity
  8
0
 62
7
100
AcDbPolyline
 90
69
 70
1
 10
73.495476
 20
8.960072
 30
0.0
 10
73.096310
 20
9.032552
 30
0.0
 10
53.341010
 20
14.263904
 30
0.0
 10
33.825710
 20
19.398920
 30
0.0
 10
33.620292
 20
20.650680
 30
0.0
 10
33.455592
 20
21.936904
 30
0.0
 10
50.896310
 20
20.312168
 30
0.0
 10
68.364577
 20
18.678416
 30
0.0
 10
59.169849
 20
45.738605
 30
0.0
 10
49.861582
 20
72.817981
 30
0.0
 10
30.074154
 20
53.523255
 30
0.0
 10
10.331998
 20
34.183894
 30
0.0
 10
10.634153
 20
34.150774
 30
0.0
 10
35.170886
 20
35.080198
 30
0.0
 10
59.405463
 20
36.042710
 30
0.0
 10
59.494470
 20
35.953286
 30
0.0
 10
59.885426
 20
35.180550
 30
0.0
 10
60.187372
 20
34.497230
 30
0.0
 10
59.681841
 20
34.426190
 30
0.0
 10
37.586417
 20
31.839614
 30
0.0
 10
15.958006
 20
29.285550
 30
0.0
 10
21.347898
 20
26.365744
 30
0.0
 10
26.776309
 20
23.484464
 30
0.0
 10
27.091290
 20
22.354160
 30
0.0
 10
27.406272
 20
21.223856
 30
0.0
 10
27.310639
 20
21.186976
 30
0.0
 10
14.755657
 20
24.420552
 30
0.0
 10
2.258041
 20
27.715688
 30
0.0
 10
4.658041
 20
30.918286
 30
0.0
 10
26.167308
 20
59.040062
 30
0.0
 10
50.107309
 20
90.370130
 30
0.0
 10
54.976310
 20
96.756370
 30
0.0
 10
55.083592
 20
96.724370
 30
0.0
 10
58.669690
 20
90.698130
 30
0.0
 10
73.964827
 20
64.363893
 30
0.0
 10
86.236440
 20
43.303894
 30
0.0
 10
88.033320
 20
40.265463
 30
0.0
 10
89.374912
 20
37.947034
 30
0.0
 10
85.328480
 20
30.485462
 30
0.0
 10
81.220880
 20
22.915752
 30
0.0
 10
81.159680
 20
22.807600
 30
0.0
 10
80.883408
 20
23.335752
 30
0.0
 10
80.607128
 20
23.863904
 30
0.0
 10
80.601528
 20
24.128784
 30
0.0
 10
80.595928
 20
24.393672
 30
0.0
 10
82.515928
 20
30.801590
 30
0.0
 10
84.435928
 20
37.262095
 30
0.0
 10
79.065923
 20
36.688604
 30
0.0
 10
73.143213
 20
35.991374
 30
0.0
 10
72.590502
 20
35.920174
 30
0.0
 10
72.435796
 20
36.824595
 30
0.0
 10
72.328506
 20
37.767516
 30
0.0
 10
78.116191
 20
40.074932
 30
0.0
 10
83.856464
 20
42.343851
 30
0.0
 10
83.876224
 20
42.439342
 30
0.0
 10
74.061153
 20
57.464184
 30
0.0
 10
64.183608
 20
72.351188
 30
0.0
 10
68.597070
 20
45.688044
 30
0.0
 10
73.105944
 20
19.014264
 30
0.0
 10
76.007640
 20
20.186584
 30
0.0
 10
78.970406
 20
21.414520
 30
0.0
 10
79.084500
 20
21.416920
 30
0.0
 10
79.303588
 20
20.617160
 30
0.0
 10
79.522668
 20
19.817408
 30
0.0
 10
77.128823
 20
15.420568
 30
0.0
 10
74.194810
 20
10.003720
 30
0.0
 10
73.654642
 20
8.983720
 30
0.0
 10
73.495476
 20
8.959880
 30
0.0
 10
73.495476
 20
8.960072
 30
0.0
  0
LWPOLYLINE
  5
101
100
AcDbEntity
  8
0
 62
7
100
AcDbPolyline
 90
21
 70
1
 10
145.001664
 20
12.074984
 30
0.0
 10
144.976304
 20
11.806064
 30
0.0
 10
140.056304
 20
16.137048
 30
0.0
 10
135.136304
 20
20.468032
 30
0.0
 10
135.104704
 20
16.375968
 30
0.0
 10
135.073104
 20
12.283896
 30
0.0
 10
133.814688
 20
12.283896
 30
0.0
 10
132.556264
 20
12.283896
 30
0.0
 10
132.556264
 20
19.253896
 30
0.0
 10
132.556264
 20
26.223896
 30
0.0
 10
132.665832
 20
26.183896
 30
0.0
 10
137.580280
 20
21.793896
 30
0.0
 10
142.450704
 20
17.443896
 30
0.0
 10
142.516224
 20
17.443896
 30
0.0
 10
142.516224
 20
21.643896
 30
0.0
 10
142.516224
 20
25.843896
 30
0.0
 10
143.808984
 20
25.843896
 30
0.0
 10
145.101744
 20
25.843896
 30
0.0
 10
145.064304
 20
19.093896
 30
0.0
 10
145.001504
 20
12.074984
 30
0.0
 10
145.001664
 20
12.074984
 30
0.0
  0
LWPOLYLINE
  5
102
100
AcDbEntity
  8
0
 62
7
100
AcDbPolyline
 90
33
 70
1
 10
223.751328
 20
11.860808
 30
0.0
 10
223.655112
 20
11.801368
 30
0.0
 10
222.763064
 20
13.212648
 30
0.0
 10
220.633976
 20
16.603920
 30
0.0
 10
219.236624
 20
18.759632
 30
0.0
 10
219.076320
 20
18.935344
 30
0.0
 10
219.076320
 20
18.759632
 30
0.0
 10
218.777432
 20
15.583920
 30
0.0
 10
218.477952
 20
12.433920
 30
0.0
 10
218.477152
 20
12.283920
 30
0.0
 10
217.097152
 20
12.283920
 30
0.0
 10
215.717152
 20
12.283920
 30
0.0
 10
215.717152
 20
12.552696
 30
0.0
 10
216.565072
 20
19.302696
 30
0.0
 10
217.499656
 20
26.007000
 30
0.0
 10
217.586328
 20
26.230080
 30
0.0
 10
220.622920
 20
21.417000
 30
0.0
 10
223.738336
 20
16.606976
 30
0.0
 10
226.817152
 20
21.401808
 30
0.0
 10
229.879936
 20
26.198752
 30
0.0
 10
230.824672
 20
19.573920
 30
0.0
 10
231.766888
 20
12.613920
 30
0.0
 10
231.827128
 20
12.283920
 30
0.0
 10
230.437560
 20
12.283920
 30
0.0
 10
229.048000
 20
12.283920
 30
0.0
 10
228.986320
 20
12.673920
 30
0.0
 10
228.795496
 20
14.383920
 30
0.0
 10
228.611960
 20
16.243920
 30
0.0
 10
228.440848
 20
17.850400
 30
0.0
 10
228.290240
 20
18.950800
 30
0.0
 10
226.052336
 20
15.452512
 30
0.0
 10
223.752128
 20
11.860832
 30
0.0
 10
223.751328
 20
11.860808
 30
0.0
  0
LWPOLYLINE
  5
103
100
AcDbEntity
  8
0
 62
7
100
AcDbPolyline
 90
42
 70
1
 10
208.499096
 20
12.000192
 30
0.0
 10
207.376320
 20
11.940112
 30
0.0
 10
206.656320
 20
12.041912
 30
0.0
 10
205.936320
 20
12.143720
 30
0.0
 10
205.235072
 20
12.406632
 30
0.0
 10
204.533840
 20
12.669536
 30
0.0
 10
203.927528
 20
13.166704
 30
0.0
 10
203.321232
 20
13.663880
 30
0.0
 10
202.975632
 20
14.278936
 30
0.0
 10
202.630032
 20
14.894000
 30
0.0
 10
202.455264
 20
15.718936
 30
0.0
 10
202.280480
 20
16.543880
 30
0.0
 10
202.278080
 20
21.193880
 30
0.0
 10
202.275680
 20
25.843880
 30
0.0
 10
203.595680
 20
25.843880
 30
0.0
 10
204.915680
 20
25.843880
 30
0.0
 10
204.915680
 20
21.665920
 30
0.0
 10
204.915680
 20
17.487960
 30
0.0
 10
205.046600
 20
16.779728
 30
0.0
 10
205.177528
 20
16.071496
 30
0.0
 10
205.405496
 20
15.624640
 30
0.0
 10
205.633456
 20
15.177784
 30
0.0
 10
206.024576
 20
14.879856
 30
0.0
 10
206.415680
 20
14.581928
 30
0.0
 10
206.993440
 20
14.436704
 30
0.0
 10
207.571216
 20
14.291472
 30
0.0
 10
208.625480
 20
14.351552
 30
0.0
 10
209.679736
 20
14.411632
 30
0.0
 10
210.303616
 20
14.697720
 30
0.0
 10
210.927496
 20
14.983816
 30
0.0
 10
210.919176
 20
20.413816
 30
0.0
 10
210.910856
 20
25.843816
 30
0.0
 10
212.233160
 20
25.843816
 30
0.0
 10
213.555480
 20
25.843816
 30
0.0
 10
213.555480
 20
19.868472
 30
0.0
 10
213.555480
 20
13.893128
 30
0.0
 10
212.985480
 20
13.462768
 30
0.0
 10
211.895768
 20
12.770720
 30
0.0
 10
210.498552
 20
12.284600
 30
0.0
 10
209.621040
 20
12.060176
 30
0.0
 10
208.498256
 20
12.000096
 30
0.0
 10
208.499096
 20
12.000192
 30
0.0
  0
LWPOLYLINE
  5
104
100
AcDbEntity
  8
0
 62
7
100
AcDbPolyline
 90
75
 70
1
 10
109.936312
 20
12.053552
 30
0.0
 10
108.616312
 20
12.059952
 30
0.0
 10
108.016312
 20
12.222208
 30
0.0
 10
106.756312
 20
12.634768
 30
0.0
 10
106.096312
 20
12.885080
 30
0.0
 10
105.294120
 20
13.478272
 30
0.0
 10
104.491928
 20
14.071464
 30
0.0
 10
103.993848
 20
14.701584
 30
0.0
 10
103.154616
 20
16.007520
 30
0.0
 10
102.813464
 20
16.683344
 30
0.0
 10
102.624888
 20
17.411072
 30
0.0
 10
102.436312
 20
18.138800
 30
0.0
 10
102.436312
 20
19.124160
 30
0.0
 10
102.436312
 20
20.109512
 30
0.0
 10
102.626040
 20
20.846840
 30
0.0
 10
103.184584
 20
22.364160
 30
0.0
 10
103.553416
 20
23.144160
 30
0.0
 10
104.464864
 20
24.055048
 30
0.0
 10
105.376312
 20
24.965944
 30
0.0
 10
106.276312
 20
25.406608
 30
0.0
 10
107.176312
 20
25.847272
 30
0.0
 10
108.016312
 20
26.023632
 30
0.0
 10
108.856312
 20
26.199992
 30
0.0
 10
109.756312
 20
26.199992
 30
0.0
 10
110.656312
 20
26.199992
 30
0.0
 10
111.474064
 20
26.026720
 30
0.0
 10
112.291808
 20
25.853448
 30
0.0
 10
113.154064
 20
25.435936
 30
0.0
 10
114.016312
 20
25.018416
 30
0.0
 10
114.412768
 20
24.652160
 30
0.0
 10
114.809216
 20
24.285904
 30
0.0
 10
114.712768
 20
24.124552
 30
0.0
 10
114.076312
 20
23.227176
 30
0.0
 10
113.447352
 20
22.487656
 30
0.0
 10
112.812528
 20
22.900832
 30
0.0
 10
112.266656
 20
23.317496
 30
0.0
 10
111.478848
 20
23.560832
 30
0.0
 10
110.691032
 20
23.804160
 30
0.0
 10
109.688176
 20
23.804160
 30
0.0
 10
108.685320
 20
23.804160
 30
0.0
 10
108.026624
 20
23.557712
 30
0.0
 10
107.367928
 20
23.311256
 30
0.0
 10
106.787616
 20
22.789512
 30
0.0
 10
106.207304
 20
22.267760
 30
0.0
 10
105.867776
 20
21.643936
 30
0.0
 10
105.528248
 20
21.020112
 30
0.0
 10
105.363704
 20
20.402136
 30
0.0
 10
105.199168
 20
19.784160
 30
0.0
 10
105.199168
 20
19.124160
 30
0.0
 10
105.199168
 20
18.464160
 30
0.0
 10
105.362128
 20
17.852168
 30
0.0
 10
105.525088
 20
17.240176
 30
0.0
 10
105.846024
 20
16.692544
 30
0.0
 10
106.166952
 20
16.144920
 30
0.0
 10
106.689704
 20
15.663064
 30
0.0
 10
107.212456
 20
15.181208
 30
0.0
 10
107.734384
 20
14.914384
 30
0.0
 10
108.856312
 20
14.487280
 30
0.0
 10
109.456312
 20
14.327008
 30
0.0
 10
110.056312
 20
14.327608
 30
0.0
 10
110.656312
 20
14.328208
 30
0.0
 10
111.453592
 20
14.497192
 30
0.0
 10
112.250872
 20
14.666184
 30
0.0
 10
112.773592
 20
14.929088
 30
0.0
 10
113.507048
 20
15.377288
 30
0.0
 10
113.754544
 20
15.513304
 30
0.0
 10
114.372568
 20
14.636256
 30
0.0
 10
114.953824
 20
13.808472
 30
0.0
 10
114.545072
 20
13.470416
 30
0.0
 10
113.465144
 20
12.771200
 30
0.0
 10
112.793976
 20
12.410040
 30
0.0
 10
112.025144
 20
12.228816
 30
0.0
 10
111.256312
 20
12.047584
 30
0.0
 10
109.936312
 20
12.053984
 30
0.0
 10
109.936312
 20
12.053552
 30
0.0
  0
LWPOLYLINE
  5
105
100
AcDbEntity
  8
0
 62
7
100
AcDbPolyline
 90
48
 70
1
 10
122.841104
 20
12.052752
 30
0.0
 10
121.576320
 20
12.061312
 30
0.0
 10
120.856320
 20
12.272856
 30
0.0
 10
119.671408
 20
12.684416
 30
0.0
 10
118.460440
 20
13.416800
 30
0.0
 10
117.320016
 20
14.398336
 30
0.0
 10
116.523272
 20
15.476512
 30
0.0
 10
116.120888
 20
16.105536
 30
0.0
 10
115.818600
 20
17.006032
 30
0.0
 10
115.516312
 20
17.906528
 30
0.0
 10
115.516312
 20
19.008048
 30
0.0
 10
115.516312
 20
20.109568
 30
0.0
 10
115.706416
 20
20.846888
 30
0.0
 10
115.896520
 20
21.584208
 30
0.0
 10
116.270864
 20
22.304208
 30
0.0
 10
116.645200
 20
23.024208
 30
0.0
 10
117.615272
 20
23.994144
 30
0.0
 10
118.585344
 20
24.964080
 30
0.0
 10
119.360824
 20
25.343440
 30
0.0
 10
120.136312
 20
25.722808
 30
0.0
 10
121.085520
 20
25.963512
 30
0.0
 10
122.034704
 20
26.204216
 30
0.0
 10
122.956320
 20
26.204216
 30
0.0
 10
123.877928
 20
26.204216
 30
0.0
 10
124.827120
 20
25.963512
 30
0.0
 10
125.776320
 20
25.722808
 30
0.0
 10
126.549248
 20
25.344704
 30
0.0
 10
127.322184
 20
24.966592
 30
0.0
 10
128.254416
 20
24.048032
 30
0.0
 10
129.186648
 20
23.129480
 30
0.0
 10
129.612192
 20
22.233400
 30
0.0
 10
130.037736
 20
21.337328
 30
0.0
 10
130.214952
 20
20.500768
 30
0.0
 10
130.392152
 20
19.664208
 30
0.0
 10
130.392152
 20
19.064208
 30
0.0
 10
130.392152
 20
18.464208
 30
0.0
 10
130.223888
 20
17.670376
 30
0.0
 10
130.055616
 20
16.876544
 30
0.0
 10
129.610992
 20
15.990376
 30
0.0
 10
129.166376
 20
15.104208
 30
0.0
 10
128.242400
 20
14.191176
 30
0.0
 10
127.318440
 20
13.278136
 30
0.0
 10
126.427376
 20
12.842976
 30
0.0
 10
125.536320
 20
12.407816
 30
0.0
 10
124.821104
 20
12.226016
 30
0.0
 10
124.105896
 20
12.044216
 30
0.0
 10
122.841104
 20
12.052776
 30
0.0
 10
122.841104
 20
12.052752
 30
0.0
  0
LWPOLYLINE
  5
106
100
AcDbEntity
  8
0
 62
7
100
AcDbPolyline
 90
37
 70
1
 10
123.085512
 20
14.364080
 30
0.0
 10
123.994688
 20
14.402080
 30
0.0
 10
124.787064
 20
14.772872
 30
0.0
 10
125.579424
 20
15.143664
 30
0.0
 10
126.127880
 20
15.649208
 30
0.0
 10
126.676328
 20
16.154760
 30
0.0
 10
127.044344
 20
16.902296
 30
0.0
 10
127.412360
 20
17.649840
 30
0.0
 10
127.509680
 20
18.357008
 30
0.0
 10
127.607000
 20
19.064176
 30
0.0
 10
127.501664
 20
19.817592
 30
0.0
 10
127.396328
 20
20.571000
 30
0.0
 10
127.046360
 20
21.257592
 30
0.0
 10
126.696408
 20
21.944176
 30
0.0
 10
126.116360
 20
22.506416
 30
0.0
 10
125.536320
 20
23.068648
 30
0.0
 10
124.876320
 20
23.406416
 30
0.0
 10
124.216320
 20
23.744176
 30
0.0
 10
122.956320
 20
23.744176
 30
0.0
 10
121.696320
 20
23.744176
 30
0.0
 10
121.010144
 20
23.422568
 30
0.0
 10
120.323984
 20
23.100960
 30
0.0
 10
119.719104
 20
22.535168
 30
0.0
 10
119.114224
 20
21.969376
 30
0.0
 10
118.725272
 20
21.179608
 30
0.0
 10
118.336312
 20
20.389840
 30
0.0
 10
118.336312
 20
19.187008
 30
0.0
 10
118.336312
 20
17.984176
 30
0.0
 10
118.716056
 20
17.182624
 30
0.0
 10
119.095800
 20
16.381072
 30
0.0
 10
119.609152
 20
15.824144
 30
0.0
 10
120.122512
 20
15.267224
 30
0.0
 10
120.643736
 20
14.961760
 30
0.0
 10
121.670640
 20
14.491168
 30
0.0
 10
122.176320
 20
14.326032
 30
0.0
 10
123.085512
 20
14.364032
 30
0.0
 10
123.085512
 20
14.364080
 30
0.0
  0
LWPOLYLINE
  5
107
100
AcDbEntity
  8
0
 62
7
100
AcDbPolyline
 90
73
 70
1
 10
151.396320
 20
12.052040
 30
0.0
 10
150.256320
 20
12.056840
 30
0.0
 10
149.592920
 20
12.269168
 30
0.0
 10
148.212920
 20
12.866872
 30
0.0
 10
147.088112
 20
13.589864
 30
0.0
 10
146.679912
 20
13.927472
 30
0.0
 10
147.358968
 20
14.845704
 30
0.0
 10
148.109904
 20
15.763936
 30
0.0
 10
148.638744
 20
15.402016
 30
0.0
 10
149.746320
 20
14.742232
 30
0.0
 10
150.396936
 20
14.444368
 30
0.0
 10
151.106624
 20
14.370768
 30
0.0
 10
151.816320
 20
14.297168
 30
0.0
 10
152.345280
 20
14.440248
 30
0.0
 10
152.874240
 20
14.583336
 30
0.0
 10
153.209136
 20
14.918224
 30
0.0
 10
153.544032
 20
15.253120
 30
0.0
 10
153.625904
 20
15.579368
 30
0.0
 10
153.707792
 20
15.905616
 30
0.0
 10
153.558864
 20
16.404744
 30
0.0
 10
153.409944
 20
16.903872
 30
0.0
 10
152.969160
 20
17.323872
 30
0.0
 10
152.528384
 20
17.743872
 30
0.0
 10
151.067048
 20
18.498672
 30
0.0
 10
149.605728
 20
19.253464
 30
0.0
 10
149.007408
 20
19.726416
 30
0.0
 10
148.409072
 20
20.199368
 30
0.0
 10
148.072688
 20
20.771616
 30
0.0
 10
147.736320
 20
21.343872
 30
0.0
 10
147.736320
 20
22.483872
 30
0.0
 10
147.736320
 20
23.623872
 30
0.0
 10
148.065480
 20
24.183792
 30
0.0
 10
148.394624
 20
24.743720
 30
0.0
 10
148.895952
 20
25.172832
 30
0.0
 10
149.397272
 20
25.601952
 30
0.0
 10
150.066800
 20
25.856296
 30
0.0
 10
150.736320
 20
26.110648
 30
0.0
 10
151.772576
 20
26.173128
 30
0.0
 10
152.808840
 20
26.235608
 30
0.0
 10
153.646976
 20
25.981032
 30
0.0
 10
154.485128
 20
25.726448
 30
0.0
 10
155.220720
 20
25.235240
 30
0.0
 10
155.956304
 20
24.663960
 30
0.0
 10
155.360424
 20
23.653888
 30
0.0
 10
154.701464
 20
22.723888
 30
0.0
 10
154.092288
 20
23.140744
 30
0.0
 10
153.546168
 20
23.557600
 30
0.0
 10
152.929464
 20
23.740744
 30
0.0
 10
152.004536
 20
23.921248
 30
0.0
 10
151.696320
 20
23.918848
 30
0.0
 10
151.216320
 20
23.700504
 30
0.0
 10
150.559040
 20
23.267984
 30
0.0
 10
150.381776
 20
23.053808
 30
0.0
 10
150.381776
 20
22.592816
 30
0.0
 10
150.381776
 20
22.131824
 30
0.0
 10
150.798168
 20
21.702208
 30
0.0
 10
151.214568
 20
21.272592
 30
0.0
 10
152.835440
 20
20.475336
 30
0.0
 10
154.456320
 20
19.678072
 30
0.0
 10
155.196512
 20
18.942016
 30
0.0
 10
155.936696
 20
18.205960
 30
0.0
 10
156.202032
 20
17.332416
 30
0.0
 10
156.467360
 20
16.458880
 30
0.0
 10
156.402640
 20
15.744720
 30
0.0
 10
156.337840
 20
15.030560
 30
0.0
 10
156.023496
 20
14.388072
 30
0.0
 10
155.709160
 20
13.745592
 30
0.0
 10
155.238144
 20
13.320056
 30
0.0
 10
154.251720
 20
12.631016
 30
0.0
 10
153.136312
 20
12.207248
 30
0.0
 10
152.536312
 20
12.046968
 30
0.0
 10
151.396312
 20
12.051768
 30
0.0
 10
151.396320
 20
12.052040
 30
0.0
  0
LWPOLYLINE
  5
108
100
AcDbEntity
  8
0
 62
7
100
AcDbPolyline
 90
48
 70
1
 10
164.961104
 20
12.052760
 30
0.0
 10
163.696320
 20
12.061320
 30
0.0
 10
162.976320
 20
12.272864
 30
0.0
 10
161.791400
 20
12.684424
 30
0.0
 10
160.580432
 20
13.416808
 30
0.0
 10
159.440016
 20
14.398336
 30
0.0
 10
158.643272
 20
15.476520
 30
0.0
 10
158.240888
 20
16.105536
 30
0.0
 10
157.938608
 20
17.006040
 30
0.0
 10
157.636320
 20
17.906536
 30
0.0
 10
157.636320
 20
19.008056
 30
0.0
 10
157.636320
 20
20.109576
 30
0.0
 10
157.826424
 20
20.846896
 30
0.0
 10
158.016528
 20
21.584216
 30
0.0
 10
158.390864
 20
22.304216
 30
0.0
 10
158.765208
 20
23.024216
 30
0.0
 10
159.735272
 20
23.994152
 30
0.0
 10
160.705344
 20
24.964088
 30
0.0
 10
161.480832
 20
25.343448
 30
0.0
 10
162.256320
 20
25.722816
 30
0.0
 10
163.205520
 20
25.963520
 30
0.0
 10
164.154704
 20
26.204224
 30
0.0
 10
165.076320
 20
26.204224
 30
0.0
 10
165.997928
 20
26.204224
 30
0.0
 10
166.947120
 20
25.963520
 30
0.0
 10
167.896320
 20
25.722816
 30
0.0
 10
168.669248
 20
25.344704
 30
0.0
 10
169.442184
 20
24.966600
 30
0.0
 10
170.374416
 20
24.048040
 30
0.0
 10
171.306648
 20
23.129488
 30
0.0
 10
171.732192
 20
22.233408
 30
0.0
 10
172.157736
 20
21.337336
 30
0.0
 10
172.334952
 20
20.500776
 30
0.0
 10
172.512152
 20
19.664216
 30
0.0
 10
172.512152
 20
19.064216
 30
0.0
 10
172.512152
 20
18.464216
 30
0.0
 10
172.343888
 20
17.670384
 30
0.0
 10
172.175616
 20
16.876552
 30
0.0
 10
171.730992
 20
15.990384
 30
0.0
 10
171.286376
 20
15.104216
 30
0.0
 10
170.362400
 20
14.191184
 30
0.0
 10
169.438440
 20
13.278144
 30
0.0
 10
168.547376
 20
12.842984
 30
0.0
 10
167.656320
 20
12.407824
 30
0.0
 10
166.941104
 20
12.226024
 30
0.0
 10
166.225896
 20
12.044216
 30
0.0
 10
164.961104
 20
12.052776
 30
0.0
 10
164.961104
 20
12.052760
 30
0.0
  0
LWPOLYLINE
  5
109
100
AcDbEntity
  8
0
 62
7
100
AcDbPolyline
 90
37
 70
1
 10
165.205512
 20
14.364088
 30
0.0
 10
166.114688
 20
14.402088
 30
0.0
 10
166.907064
 20
14.772880
 30
0.0
 10
167.699424
 20
15.143672
 30
0.0
 10
168.247880
 20
15.649216
 30
0.0
 10
168.796328
 20
16.154768
 30
0.0
 10
169.164344
 20
16.902304
 30
0.0
 10
169.532360
 20
17.649848
 30
0.0
 10
169.629680
 20
18.357016
 30
0.0
 10
169.727000
 20
19.064184
 30
0.0
 10
169.621664
 20
19.817600
 30
0.0
 10
169.516328
 20
20.571008
 30
0.0
 10
169.166360
 20
21.257600
 30
0.0
 10
168.816408
 20
21.944184
 30
0.0
 10
168.236360
 20
22.506424
 30
0.0
 10
167.656320
 20
23.068656
 30
0.0
 10
166.996320
 20
23.406424
 30
0.0
 10
166.336320
 20
23.744184
 30
0.0
 10
165.076320
 20
23.744184
 30
0.0
 10
163.816320
 20
23.744184
 30
0.0
 10
163.130144
 20
23.422576
 30
0.0
 10
162.443984
 20
23.100968
 30
0.0
 10
161.839104
 20
22.535176
 30
0.0
 10
161.234232
 20
21.969384
 30
0.0
 10
160.845272
 20
21.179616
 30
0.0
 10
160.456320
 20
20.389848
 30
0.0
 10
160.456320
 20
19.187016
 30
0.0
 10
160.456320
 20
17.984184
 30
0.0
 10
160.836056
 20
17.182632
 30
0.0
 10
161.215800
 20
16.381080
 30
0.0
 10
161.729160
 20
15.824152
 30
0.0
 10
162.242520
 20
15.267232
 30
0.0
 10
162.763736
 20
14.961768
 30
0.0
 10
163.790640
 20
14.491176
 30
0.0
 10
164.296320
 20
14.326040
 30
0.0
 10
165.205512
 20
14.364040
 30
0.0
 10
165.205512
 20
14.364088
 30
0.0
  0
LWPOLYLINE
  5
10a
100
AcDbEntity
  8
0
 62
7
100
AcDbPolyline
 90
33
 70
1
 10
175.846320
 20
12.310152
 30
0.0
 10
174.556320
 20
12.276072
 30
0.0
 10
174.556320
 20
19.071704
 30
0.0
 10
174.556320
 20
25.867336
 30
0.0
 10
177.226320
 20
25.818056
 30
0.0
 10
179.896320
 20
25.768776
 30
0.0
 10
180.709848
 20
25.460080
 30
0.0
 10
181.990128
 20
24.842488
 30
0.0
 10
182.456904
 20
24.533600
 30
0.0
 10
182.764256
 20
24.130632
 30
0.0
 10
183.071616
 20
23.727672
 30
0.0
 10
183.263336
 20
23.195912
 30
0.0
 10
183.455072
 20
22.664152
 30
0.0
 10
183.455072
 20
21.644152
 30
0.0
 10
183.455072
 20
20.624152
 30
0.0
 10
183.206840
 20
19.961064
 30
0.0
 10
182.958600
 20
19.297984
 30
0.0
 10
182.387160
 20
18.736656
 30
0.0
 10
181.815704
 20
18.175336
 30
0.0
 10
181.275704
 20
17.945920
 30
0.0
 10
180.523656
 20
17.643312
 30
0.0
 10
180.311616
 20
17.570112
 30
0.0
 10
183.158544
 20
14.957136
 30
0.0
 10
186.005472
 20
12.344152
 30
0.0
 10
184.214976
 20
12.310792
 30
0.0
 10
182.424464
 20
12.277432
 30
0.0
 10
179.899064
 20
14.800792
 30
0.0
 10
177.287736
 20
17.324096
 30
0.0
 10
177.201192
 20
17.324096
 30
0.0
 10
177.168792
 20
14.834096
 30
0.0
 10
177.136392
 20
12.344096
 30
0.0
 10
175.846392
 20
12.310016
 30
0.0
 10
175.846320
 20
12.310152
 30
0.0
  0
LWPOLYLINE
  5
10b
100
AcDbEntity
  8
0
 62
7
100
AcDbPolyline
 90
18
 70
1
 10
178.246320
 20
19.748032
 30
0.0
 10
179.296320
 20
19.801232
 30
0.0
 10
179.815344
 20
20.069768
 30
0.0
 10
180.334352
 20
20.338304
 30
0.0
 10
180.555200
 20
20.831576
 30
0.0
 10
180.776048
 20
21.324856
 30
0.0
 10
180.727328
 20
21.814360
 30
0.0
 10
180.678608
 20
22.303856
 30
0.0
 10
180.460016
 20
22.596624
 30
0.0
 10
179.948856
 20
23.105672
 30
0.0
 10
179.656272
 20
23.321944
 30
0.0
 10
179.009888
 20
23.443088
 30
0.0
 10
177.779888
 20
23.564176
 30
0.0
 10
177.196272
 20
23.564176
 30
0.0
 10
177.196272
 20
21.629496
 30
0.0
 10
177.196272
 20
19.694816
 30
0.0
 10
178.246272
 20
19.748016
 30
0.0
 10
178.246320
 20
19.748032
 30
0.0
  0
LWPOLYLINE
  5
10c
100
AcDbEntity
  8
0
 62
7
100
AcDbPolyline
 90
17
 70
1
 10
190.156320
 20
12.284160
 30
0.0
 10
188.836320
 20
12.284160
 30
0.0
 10
188.836320
 20
17.924160
 30
0.0
 10
188.836320
 20
23.564160
 30
0.0
 10
186.856320
 20
23.564160
 30
0.0
 10
184.876320
 20
23.564160
 30
0.0
 10
184.876320
 20
24.704160
 30
0.0
 10
184.876320
 20
25.844160
 30
0.0
 10
190.156320
 20
25.844160
 30
0.0
 10
195.436320
 20
25.844160
 30
0.0
 10
195.436320
 20
24.704160
 30
0.0
 10
195.436320
 20
23.564160
 30
0.0
 10
193.456320
 20
23.564160
 30
0.0
 10
191.476320
 20
23.564160
 30
0.0
 10
191.476320
 20
17.924160
 30
0.0
 10
191.476320
 20
12.284160
 30
0.0
 10
190.156320
 20
12.284160
 30
0.0
  0
LWPOLYLINE
  5
10d
100
AcDbEntity
  8
0
 62
7
100
AcDbPolyline
 90
10
 70
1
 10
198.166320
 20
12.310080
 30
0.0
 10
196.876320
 20
12.276000
 30
0.0
 10
196.876320
 20
19.060056
 30
0.0
 10
196.876320
 20
25.844120
 30
0.0
 10
198.197312
 20
25.844120
 30
0.0
 10
199.518320
 20
25.844120
 30
0.0
 10
199.487280
 20
19.094120
 30
0.0
 10
199.456320
 20
12.344120
 30
0.0
 10
198.166320
 20
12.310040
 30
0.0
 10
198.166320
 20
12.310080
 30
0.0
  0
LWPOLYLINE
  5
10e
100
AcDbEntity
  8
0
 62
7
100
AcDbPolyline
 90
41
 70
1
 10
169.008432
 20
35.647126
 30
0.0
 10
168.849648
 20
35.430358
 30
0.0
 10
160.632984
 20
48.499304
 30
0.0
 10
152.416320
 20
61.568249
 30
0.0
 10
152.331432
 20
61.256070
 30
0.0
 10
151.154760
 20
49.543892
 30
0.0
 10
149.996304
 20
37.753893
 30
0.0
 10
149.929584
 20
37.363893
 30
0.0
 10
145.022936
 20
37.363893
 30
0.0
 10
140.116296
 20
37.363893
 30
0.0
 10
140.116296
 20
37.481257
 30
0.0
 10
143.357096
 20
62.111255
 30
0.0
 10
146.687096
 20
86.952826
 30
0.0
 10
146.776296
 20
87.281763
 30
0.0
 10
157.816296
 20
69.769398
 30
0.0
 10
168.856296
 20
52.257032
 30
0.0
 10
168.940080
 20
52.280464
 30
0.0
 10
179.957936
 20
69.643893
 30
0.0
 10
190.991664
 20
87.085400
 30
0.0
 10
191.091312
 20
87.186908
 30
0.0
 10
191.165232
 20
86.725400
 30
0.0
 10
194.477728
 20
62.069272
 30
0.0
 10
197.716264
 20
37.619274
 30
0.0
 10
197.716264
 20
37.363895
 30
0.0
 10
192.858552
 20
37.363895
 30
0.0
 10
188.000832
 20
37.363895
 30
0.0
 10
187.944512
 20
37.633895
 30
0.0
 10
187.756008
 20
39.343895
 30
0.0
 10
187.570080
 20
41.293895
 30
0.0
 10
187.459776
 20
42.313895
 30
0.0
 10
187.157816
 20
45.283895
 30
0.0
 10
186.847592
 20
48.403894
 30
0.0
 10
186.731712
 20
49.483894
 30
0.0
 10
186.377784
 20
52.963894
 30
0.0
 10
186.011808
 20
56.623894
 30
0.0
 10
185.891264
 20
57.763894
 30
0.0
 10
185.654216
 20
60.034742
 30
0.0
 10
185.442896
 20
61.797290
 30
0.0
 10
177.289200
 20
48.846442
 30
0.0
 10
169.008408
 20
35.647126
 30
0.0
 10
169.008432
 20
35.647126
 30
0.0
  0
LWPOLYLINE
  5
10f
100
AcDbEntity
  8
0
 62
7
100
AcDbPolyline
 90
148
 70
1
 10
117.600912
 20
36.415670
 30
0.0
 10
115.336312
 20
36.427430
 30
0.0
 10
114.196312
 20
36.602127
 30
0.0
 10
111.856312
 20
37.079845
 30
0.0
 10
109.516312
 20
37.805051
 30
0.0
 10
107.265360
 20
38.806981
 30
0.0
 10
105.309392
 20
39.948479
 30
0.0
 10
103.856712
 20
41.068996
 30
0.0
 10
103.249040
 20
41.627753
 30
0.0
 10
104.954424
 20
44.445815
 30
0.0
 10
106.836032
 20
47.541817
 30
0.0
 10
107.012248
 20
47.819755
 30
0.0
 10
107.544096
 20
47.329515
 30
0.0
 10
108.926504
 20
46.289051
 30
0.0
 10
110.876696
 20
45.222626
 30
0.0
 10
112.936312
 20
44.393754
 30
0.0
 10
114.736312
 20
43.896223
 30
0.0
 10
115.576312
 20
43.711365
 30
0.0
 10
117.136312
 20
43.643221
 30
0.0
 10
118.696312
 20
43.575077
 30
0.0
 10
119.776312
 20
43.778357
 30
0.0
 10
120.856320
 20
43.981636
 30
0.0
 10
121.636320
 20
44.291570
 30
0.0
 10
123.159176
 20
45.068939
 30
0.0
 10
123.902024
 20
45.536374
 30
0.0
 10
124.566312
 20
46.253879
 30
0.0
 10
125.554032
 20
47.523284
 30
0.0
 10
126.156728
 20
48.844539
 30
0.0
 10
126.435992
 20
49.613893
 30
0.0
 10
126.542000
 20
50.561410
 30
0.0
 10
126.648008
 20
51.508928
 30
0.0
 10
126.546096
 20
52.506405
 30
0.0
 10
126.444192
 20
53.503882
 30
0.0
 10
126.138672
 20
54.399582
 30
0.0
 10
125.833136
 20
55.295283
 30
0.0
 10
125.364144
 20
56.079582
 30
0.0
 10
124.895160
 20
56.863882
 30
0.0
 10
124.267256
 20
57.563853
 30
0.0
 10
123.639344
 20
58.263825
 30
0.0
 10
122.847840
 20
58.864559
 30
0.0
 10
122.056320
 20
59.465294
 30
0.0
 10
120.976320
 20
59.989366
 30
0.0
 10
119.896312
 20
60.513438
 30
0.0
 10
118.707384
 20
60.820166
 30
0.0
 10
117.518448
 20
61.126894
 30
0.0
 10
116.307384
 20
61.223227
 30
0.0
 10
115.096312
 20
61.319561
 30
0.0
 10
114.046176
 20
61.251721
 30
0.0
 10
112.996040
 20
61.183881
 30
0.0
 10
112.996160
 20
63.856166
 30
0.0
 10
112.996280
 20
66.528453
 30
0.0
 10
113.326280
 20
66.436166
 30
0.0
 10
113.656280
 20
66.343881
 30
0.0
 10
115.336280
 20
66.358209
 30
0.0
 10
117.016280
 20
66.372537
 30
0.0
 10
117.976280
 20
66.629425
 30
0.0
 10
118.936280
 20
66.886312
 30
0.0
 10
119.896280
 20
67.347946
 30
0.0
 10
120.856280
 20
67.809580
 30
0.0
 10
121.610648
 20
68.380182
 30
0.0
 10
122.365016
 20
68.950783
 30
0.0
 10
122.910704
 20
69.620678
 30
0.0
 10
123.456392
 20
70.290571
 30
0.0
 10
123.787232
 20
70.957223
 30
0.0
 10
124.271336
 20
72.188757
 30
0.0
 10
124.424600
 20
72.753638
 30
0.0
 10
124.369240
 20
73.928756
 30
0.0
 10
124.313880
 20
75.103874
 30
0.0
 10
124.048608
 20
75.788070
 30
0.0
 10
123.783352
 20
76.472266
 30
0.0
 10
123.240400
 20
77.076164
 30
0.0
 10
122.697432
 20
77.680062
 30
0.0
 10
121.832568
 20
78.107504
 30
0.0
 10
120.967696
 20
78.534946
 30
0.0
 10
120.011976
 20
78.705223
 30
0.0
 10
119.056248
 20
78.875501
 30
0.0
 10
118.216248
 20
78.879181
 30
0.0
 10
117.376248
 20
78.882861
 30
0.0
 10
116.258672
 20
78.701610
 30
0.0
 10
115.141096
 20
78.520361
 30
0.0
 10
113.858672
 20
78.103737
 30
0.0
 10
112.576248
 20
77.687114
 30
0.0
 10
111.515648
 20
77.165546
 30
0.0
 10
110.455040
 20
76.643980
 30
0.0
 10
110.359024
 20
76.893902
 30
0.0
 10
109.101760
 20
79.946768
 30
0.0
 10
107.940504
 20
82.749711
 30
0.0
 10
108.002744
 20
82.911948
 30
0.0
 10
108.580048
 20
83.447283
 30
0.0
 10
110.115664
 20
84.305780
 30
0.0
 10
112.516232
 20
85.251018
 30
0.0
 10
113.896232
 20
85.710861
 30
0.0
 10
115.096232
 20
85.953066
 30
0.0
 10
117.376232
 20
86.318564
 30
0.0
 10
118.456232
 20
86.441855
 30
0.0
 10
119.716232
 20
86.442335
 30
0.0
 10
120.976232
 20
86.442815
 30
0.0
 10
122.116232
 20
86.258070
 30
0.0
 10
123.256232
 20
86.073325
 30
0.0
 10
124.516232
 20
85.651964
 30
0.0
 10
125.776232
 20
85.230602
 30
0.0
 10
126.556232
 20
84.800019
 30
0.0
 10
128.056232
 20
83.860038
 30
0.0
 10
129.500120
 20
82.642023
 30
0.0
 10
130.797768
 20
81.187783
 30
0.0
 10
131.371512
 20
80.442159
 30
0.0
 10
131.893128
 20
79.452970
 30
0.0
 10
132.414728
 20
78.463781
 30
0.0
 10
132.746432
 20
77.443781
 30
0.0
 10
133.078128
 20
76.423781
 30
0.0
 10
133.087248
 20
74.563781
 30
0.0
 10
133.096288
 20
72.703782
 30
0.0
 10
132.866536
 20
71.803782
 30
0.0
 10
132.308992
 20
70.107500
 30
0.0
 10
131.567920
 20
68.667500
 30
0.0
 10
130.556448
 20
67.324978
 30
0.0
 10
129.958288
 20
66.626175
 30
0.0
 10
129.029472
 20
65.870756
 30
0.0
 10
127.324192
 20
64.661238
 30
0.0
 10
126.547720
 20
64.207138
 30
0.0
 10
127.507552
 20
63.694286
 30
0.0
 10
129.029872
 20
62.794438
 30
0.0
 10
130.401616
 20
61.710923
 30
0.0
 10
131.210896
 20
61.014402
 30
0.0
 10
131.989144
 20
60.041705
 30
0.0
 10
132.767400
 20
59.069006
 30
0.0
 10
133.429944
 20
57.786394
 30
0.0
 10
134.092504
 20
56.503782
 30
0.0
 10
134.453272
 20
55.363782
 30
0.0
 10
134.814040
 20
54.223782
 30
0.0
 10
135.020368
 20
52.903782
 30
0.0
 10
135.226704
 20
51.583783
 30
0.0
 10
135.163424
 20
49.903783
 30
0.0
 10
135.100144
 20
48.223783
 30
0.0
 10
134.782616
 20
47.143783
 30
0.0
 10
134.105720
 20
45.289670
 30
0.0
 10
133.066808
 20
43.489670
 30
0.0
 10
132.387272
 20
42.463783
 30
0.0
 10
131.361784
 20
41.436300
 30
0.0
 10
130.336304
 20
40.408818
 30
0.0
 10
129.436304
 20
39.778287
 30
0.0
 10
127.696304
 20
38.689165
 30
0.0
 10
125.770216
 20
37.800698
 30
0.0
 10
123.550216
 20
37.072940
 30
0.0
 10
121.140904
 20
36.589420
 30
0.0
 10
119.865520
 20
36.403822
 30
0.0
 10
117.600920
 20
36.415582
 30
0.0
 10
117.600912
 20
36.415670
 30
0.0
  0
LWPOLYLINE
  5
110
100
AcDbEntity
  8
0
 62
7
100
AcDbPolyline
 90
21
 70
1
 10
209.536320
 20
37.363893
 30
0.0
 10
204.916320
 20
37.363893
 30
0.0
 10
204.916320
 20
61.663891
 30
0.0
 10
204.916320
 20
85.963890
 30
0.0
 10
219.136320
 20
85.963890
 30
0.0
 10
233.356320
 20
85.963890
 30
0.0
 10
233.356320
 20
81.823890
 30
0.0
 10
233.356320
 20
77.683890
 30
0.0
 10
223.756320
 20
77.683890
 30
0.0
 10
214.156320
 20
77.683890
 30
0.0
 10
214.156320
 20
72.283890
 30
0.0
 10
214.156320
 20
66.883891
 30
0.0
 10
221.896320
 20
66.883891
 30
0.0
 10
229.636320
 20
66.883891
 30
0.0
 10
229.636320
 20
62.743891
 30
0.0
 10
229.636320
 20
58.603891
 30
0.0
 10
221.896320
 20
58.603891
 30
0.0
 10
214.156320
 20
58.603891
 30
0.0
 10
214.156320
 20
47.983892
 30
0.0
 10
214.156320
 20
37.363893
 30
0.0
 10
209.536320
 20
37.363893
 30
0.0
  0
ENDSEC
  0
SECTION
  2
OBJECTS
  0
DICTIONARY
  5
C
330
0
100
AcDbDictionary
  3
ACAD_GROUP
350
D
  3
ACAD_MLINESTYLE
350
17
  0
DICTIONARY
  5
D
330
C
100
AcDbDictionary
  0
DICTIONARY
  5
1A
330
C
100
AcDbDictionary
  0
DICTIONARY
  5
17
330
C
100
AcDbDictionary
  3
STANDARD
350
18
  0
DICTIONARY
  5
19
330
C
100
AcDbDictionary
  0
ENDSEC
  0
EOF
