  0
SECTION
  2
HEADER
  9
$ACADVER
  1
AC1014
  9
$HANDSEED
  5
FFFF
  9
$MEASUREMENT
 70
     1
  0
ENDSEC
  0
SECTION
  2
TABLES
  0
TABLE
  2
VPORT
  5
8
330
0
100
AcDbSymbolTable
 70
     4
  0
VPORT
  5
2E
330
8
100
AcDbSymbolTableRecord
100
AcDbViewportTableRecord
  2
*ACTIVE
 70
     0
 10
0.0
 20
0.0
 11
1.0
 21
1.0
 12
210.0
 22
148.5
 13
0.0
 23
0.0
 14
10.0
 24
10.0
 15
10.0
 25
10.0
 16
0.0
 26
0.0
 36
1.0
 17
0.0
 27
0.0
 37
0.0
 40
341.0
 41
1.24
 42
50.0
 43
0.0
 44
0.0
 50
0.0
 51
0.0
 71
     0
 72
   100
 73
     1
 74
     3
 75
     0
 76
     0
 77
     0
 78
     0
  0
ENDTAB
  0
TABLE
  2
LTYPE
  5
5
330
0
100
AcDbSymbolTable
 70
     1
  0
LTYPE
  5
14
330
5
100
AcDbSymbolTableRecord
100
AcDbLinetypeTableRecord
  2
BYBLOCK
 70
     0
  3

 72
    65
 73
     0
 40
0.0
  0
LTYPE
  5
15
330
5
100
AcDbSymbolTableRecord
100
AcDbLinetypeTableRecord
  2
BYLAYER
 70
     0
  3

 72
    65
 73
     0
 40
0.0
  0
LTYPE
  5
16
330
5
100
AcDbSymbolTableRecord
100
AcDbLinetypeTableRecord
  2
CONTINUOUS
 70
     0
  3
Solid line
 72
    65
 73
     0
 40
0.0
  0
ENDTAB
  0
TABLE
  2
LAYER
  5
2
100
AcDbSymbolTable
 70
2
  0
LAYER
  5
50
100
AcDbSymbolTableRecord
100
AcDbLayerTableRecord
  2
0
 70
0
  6
CONTINUOUS
  0
LAYER
  5
51
100
AcDbSymbolTableRecord
100
AcDbLayerTableRecord
  2
Layer_1
 70
0
  6
CONTINUOUS
  0
ENDTAB
  0
TABLE
  2
STYLE
  5
3
330
0
100
AcDbSymbolTable
 70
     1
  0
STYLE
  5
11
330
3
100
AcDbSymbolTableRecord
100
AcDbTextStyleTableRecord
  2
STANDARD
 70
     0
 40
0.0
 41
1.0
 50
0.0
 71
     0
 42
2.5
  3
txt
  4

  0
ENDTAB
  0
TABLE
  2
VIEW
  5
6
330
0
100
AcDbSymbolTable
 70
     0
  0
ENDTAB
  0
TABLE
  2
UCS
  5
7
330
0
100
AcDbSymbolTable
 70
     0
  0
ENDTAB
  0
TABLE
  2
APPID
  5
9
330
0
100
AcDbSymbolTable
 70
     2
  0
APPID
  5
12
330
9
100
AcDbSymbolTableRecord
100
AcDbRegAppTableRecord
  2
ACAD
 70
     0
  0
ENDTAB
  0
TABLE
  2
DIMSTYLE
  5
A
330
0
100
AcDbSymbolTable
 70
     1
  0
DIMSTYLE
105
27
330
A
100
AcDbSymbolTableRecord
100
AcDbDimStyleTableRecord
  2
ISO-25
 70
     0
  3

  4

  5

  6

  7

 40
1.0
 41
2.5
 42
0.625
 43
3.75
 44
1.25
 45
0.0
 46
0.0
 47
0.0
 48
0.0
140
2.5
141
2.5
142
0.0
143
0.03937007874016
144
1.0
145
0.0
146
1.0
147
0.625
 71
     0
 72
     0
 73
     0
 74
     0
 75
     0
 76
     0
 77
     1
 78
     8
170
     0
171
     3
172
     1
173
     0
174
     0
175
     0
176
     0
177
     0
178
     0
270
     2
271
     2
272
     2
273
     2
274
     3
340
11
275
     0
280
     0
281
     0
282
     0
283
     0
284
     8
285
     0
286
     0
287
     3
288
     0
  0
ENDTAB
  0
TABLE
  2
BLOCK_RECORD
  5
1
330
0
100
AcDbSymbolTable
 70
     1
  0
BLOCK_RECORD
  5
1F
330
1
100
AcDbSymbolTableRecord
100
AcDbBlockTableRecord
  2
*MODEL_SPACE
  0
BLOCK_RECORD
  5
1B
330
1
100
AcDbSymbolTableRecord
100
AcDbBlockTableRecord
  2
*PAPER_SPACE
  0
ENDTAB
  0
ENDSEC
  0
SECTION
  2
BLOCKS
  0
BLOCK
  5
20
330
1F
100
AcDbEntity
  8
0
100
AcDbBlockBegin
  2
*MODEL_SPACE
 70
     0
 10
0.0
 20
0.0
 30
0.0
  3
*MODEL_SPACE
  1

  0
ENDBLK
  5
21
330
1F
100
AcDbEntity
  8
0
100
AcDbBlockEnd
  0
BLOCK
  5
1C
330
1B
100
AcDbEntity
 67
     1
  8
0
100
AcDbBlockBegin
  2
*PAPER_SPACE
  1

  0
ENDBLK
  5
1D
330
1B
100
AcDbEntity
 67
     1
  8
0
100
AcDbBlockEnd
  0
ENDSEC
  0
SECTION
  2
ENTITIES
  0
LWPOLYLINE
  5
100
100
AcDbEntity
  8
Layer_1
 62
7
100
AcDbPolyline
 90
13
 70
1
 10
9.423552
 20
68.730500
 30
0.0
 10
15.439176
 20
68.730500
 30
0.0
 10
15.439176
 20
60.214876
 30
0.0
 10
24.111048
 20
68.730500
 30
0.0
 10
31.095424
 20
68.730500
 30
0.0
 10
19.861048
 20
57.683628
 30
0.0
 10
32.251672
 20
45.402372
 30
0.0
 10
24.720424
 20
45.402372
 30
0.0
 10
15.439176
 20
54.589876
 30
0.0
 10
15.439176
 20
45.402372
 30
0.0
 10
9.423552
 20
45.402372
 30
0.0
 10
9.423552
 20
68.730500
 30
0.0
 10
9.423552
 20
68.730500
 30
0.0
  0
LWPOLYLINE
  5
101
100
AcDbEntity
  8
Layer_1
 62
7
100
AcDbPolyline
 90
30
 70
1
 10
51.579800
 20
56.058628
 30
0.0
 10
51.579800
 20
45.402372
 30
0.0
 10
45.954800
 20
45.402372
 30
0.0
 10
45.954800
 20
47.136748
 30
0.0
 10
45.954800
 20
53.527372
 30
0.0
 10
45.927440
 20
55.464876
 30
0.0
 10
45.845408
 20
56.683628
 30
0.0
 10
45.712592
 20
57.429724
 30
0.0
 10
45.501656
 20
57.949252
 30
0.0
 10
45.114936
 20
58.433628
 30
0.0
 10
44.611032
 20
58.793004
 30
0.0
 10
44.009472
 20
59.027372
 30
0.0
 10
43.329784
 20
59.105532
 30
0.0
 10
41.767280
 20
58.765692
 30
0.0
 10
40.579784
 20
57.746156
 30
0.0
 10
39.829784
 20
56.140684
 30
0.0
 10
39.579784
 20
54.011780
 30
0.0
 10
39.579784
 20
45.402404
 30
0.0
 10
33.986032
 20
45.402404
 30
0.0
 10
33.986032
 20
69.714908
 30
0.0
 10
39.579784
 20
69.714908
 30
0.0
 10
39.579784
 20
60.339908
 30
0.0
 10
40.884472
 20
61.668028
 30
0.0
 10
42.267280
 20
62.589908
 30
0.0
 10
43.763376
 20
63.140692
 30
0.0
 10
45.407912
 20
63.324284
 30
0.0
 10
48.071968
 20
62.859436
 30
0.0
 10
50.001656
 20
61.464908
 30
0.0
 10
51.185248
 20
59.183660
 30
0.0
 10
51.579800
 20
56.058628
 30
0.0
  0
LWPOLYLINE
  5
102
100
AcDbEntity
  8
Layer_1
 62
7
100
AcDbPolyline
 90
17
 70
1
 10
64.642296
 20
53.277372
 30
0.0
 10
63.107136
 20
53.128940
 30
0.0
 10
62.001672
 20
52.683628
 30
0.0
 10
61.345424
 20
51.949252
 30
0.0
 10
61.126672
 20
50.933628
 30
0.0
 10
61.302456
 20
49.984404
 30
0.0
 10
61.829800
 20
49.261748
 30
0.0
 10
62.685272
 20
48.816436
 30
0.0
 10
63.814176
 20
48.668004
 30
0.0
 10
65.267296
 20
48.949252
 30
0.0
 10
66.470424
 20
49.793004
 30
0.0
 10
67.279024
 20
51.074252
 30
0.0
 10
67.548552
 20
52.636748
 30
0.0
 10
67.548552
 20
52.957060
 30
0.0
 10
67.548552
 20
53.277372
 30
0.0
 10
66.095424
 20
53.277372
 30
0.0
 10
64.642296
 20
53.277372
 30
0.0
  0
LWPOLYLINE
  5
103
100
AcDbEntity
  8
Layer_1
 62
7
100
AcDbPolyline
 90
38
 70
1
 10
73.189176
 20
55.386748
 30
0.0
 10
73.189176
 20
45.402372
 30
0.0
 10
67.548552
 20
45.402372
 30
0.0
 10
67.548552
 20
47.996124
 30
0.0
 10
66.353240
 20
46.617220
 30
0.0
 10
65.017296
 20
45.668004
 30
0.0
 10
63.458704
 20
45.128940
 30
0.0
 10
61.595424
 20
44.949252
 30
0.0
 10
59.130584
 20
45.343780
 30
0.0
 10
57.173552
 20
46.527372
 30
0.0
 10
55.907928
 20
48.355500
 30
0.0
 10
55.486048
 20
50.652372
 30
0.0
 10
56.013392
 20
53.320340
 30
0.0
 10
57.595424
 20
55.168004
 30
0.0
 10
60.321984
 20
56.246124
 30
0.0
 10
64.251672
 20
56.605500
 30
0.0
 10
65.900112
 20
56.605500
 30
0.0
 10
67.548552
 20
56.605500
 30
0.0
 10
67.548552
 20
56.824252
 30
0.0
 10
67.548552
 20
57.043004
 30
0.0
 10
67.286832
 20
58.191436
 30
0.0
 10
66.501672
 20
58.980500
 30
0.0
 10
65.161832
 20
59.449252
 30
0.0
 10
63.236048
 20
59.605500
 30
0.0
 10
61.501672
 20
59.515660
 30
0.0
 10
59.892296
 20
59.246124
 30
0.0
 10
58.400112
 20
58.796908
 30
0.0
 10
57.017296
 20
58.168004
 30
0.0
 10
57.017296
 20
60.300812
 30
0.0
 10
57.017296
 20
62.433628
 30
0.0
 10
58.818080
 20
62.816436
 30
0.0
 10
60.626672
 20
63.089876
 30
0.0
 10
62.439176
 20
63.265660
 30
0.0
 10
64.251672
 20
63.324220
 30
0.0
 10
68.325896
 20
62.855468
 30
0.0
 10
71.079800
 20
61.449220
 30
0.0
 10
72.661832
 20
59.003908
 30
0.0
 10
73.189176
 20
55.386748
 30
0.0
  0
LWPOLYLINE
  5
104
100
AcDbEntity
  8
Layer_1
 62
7
100
AcDbPolyline
 90
6
 70
1
 10
78.361048
 20
62.902372
 30
0.0
 10
83.954800
 20
62.902372
 30
0.0
 10
83.954800
 20
45.402372
 30
0.0
 10
78.361048
 20
45.402372
 30
0.0
 10
78.361048
 20
62.902372
 30
0.0
 10
78.361048
 20
62.902372
 30
0.0
  0
LWPOLYLINE
  5
105
100
AcDbEntity
  8
Layer_1
 62
7
100
AcDbPolyline
 90
6
 70
1
 10
78.361048
 20
69.714876
 30
0.0
 10
83.954800
 20
69.714876
 30
0.0
 10
83.954800
 20
65.152372
 30
0.0
 10
78.361048
 20
65.152372
 30
0.0
 10
78.361048
 20
69.714876
 30
0.0
 10
78.361048
 20
69.714876
 30
0.0
  0
LWPOLYLINE
  5
106
100
AcDbEntity
  8
Layer_1
 62
7
100
AcDbPolyline
 90
10
 70
1
 10
6.642296
 20
28.730500
 30
0.0
 10
28.142296
 20
28.730500
 30
0.0
 10
28.142296
 20
24.183628
 30
0.0
 10
20.407928
 20
24.183628
 30
0.0
 10
20.407928
 20
5.402372
 30
0.0
 10
14.392296
 20
5.402372
 30
0.0
 10
14.392296
 20
24.183628
 30
0.0
 10
6.642296
 20
24.183628
 30
0.0
 10
6.642296
 20
28.730500
 30
0.0
 10
6.642296
 20
28.730500
 30
0.0
  0
LWPOLYLINE
  5
107
100
AcDbEntity
  8
Layer_1
 62
7
100
AcDbPolyline
 90
26
 70
1
 10
40.486048
 20
18.136748
 30
0.0
 10
39.751672
 20
18.433628
 30
0.0
 10
39.017296
 20
18.636748
 30
0.0
 10
38.294640
 20
18.765660
 30
0.0
 10
37.564176
 20
18.808620
 30
0.0
 10
35.654016
 20
18.460964
 30
0.0
 10
34.236048
 20
17.417996
 30
0.0
 10
33.368864
 20
15.742212
 30
0.0
 10
33.079800
 20
13.464868
 30
0.0
 10
33.079800
 20
5.402364
 30
0.0
 10
27.486048
 20
5.402364
 30
0.0
 10
27.486048
 20
22.902364
 30
0.0
 10
33.079800
 20
22.902364
 30
0.0
 10
33.079800
 20
20.027364
 30
0.0
 10
34.236048
 20
21.511740
 30
0.0
 10
35.548552
 20
22.527364
 30
0.0
 10
37.091520
 20
23.125028
 30
0.0
 10
38.907928
 20
23.324244
 30
0.0
 10
39.200896
 20
23.316244
 30
0.0
 10
39.517296
 20
23.292804
 30
0.0
 10
39.919640
 20
23.261524
 30
0.0
 10
40.470424
 20
23.199044
 30
0.0
 10
40.478424
 20
20.667796
 30
0.0
 10
40.486424
 20
18.136540
 30
0.0
 10
40.486432
 20
18.136556
 30
0.0
 10
40.486048
 20
18.136748
 30
0.0
  0
LWPOLYLINE
  5
108
100
AcDbEntity
  8
Layer_1
 62
7
100
AcDbPolyline
 90
17
 70
1
 10
51.142296
 20
13.277372
 30
0.0
 10
49.607136
 20
13.128932
 30
0.0
 10
48.501672
 20
12.683628
 30
0.0
 10
47.845424
 20
11.949252
 30
0.0
 10
47.626672
 20
10.933628
 30
0.0
 10
47.802456
 20
9.984404
 30
0.0
 10
48.329800
 20
9.261748
 30
0.0
 10
49.185272
 20
8.816444
 30
0.0
 10
50.314176
 20
8.668004
 30
0.0
 10
51.767296
 20
8.949252
 30
0.0
 10
52.970424
 20
9.793004
 30
0.0
 10
53.779024
 20
11.074252
 30
0.0
 10
54.048552
 20
12.636748
 30
0.0
 10
54.048552
 20
12.957060
 30
0.0
 10
54.048552
 20
13.277372
 30
0.0
 10
52.595424
 20
13.277372
 30
0.0
 10
51.142296
 20
13.277372
 30
0.0
  0
LWPOLYLINE
  5
109
100
AcDbEntity
  8
Layer_1
 62
7
100
AcDbPolyline
 90
38
 70
1
 10
59.689176
 20
15.386748
 30
0.0
 10
59.689176
 20
5.402372
 30
0.0
 10
54.048552
 20
5.402372
 30
0.0
 10
54.048552
 20
7.996124
 30
0.0
 10
52.853240
 20
6.617220
 30
0.0
 10
51.517296
 20
5.668004
 30
0.0
 10
49.958704
 20
5.128940
 30
0.0
 10
48.095424
 20
4.949252
 30
0.0
 10
45.630584
 20
5.343780
 30
0.0
 10
43.673552
 20
6.527372
 30
0.0
 10
42.407928
 20
8.355500
 30
0.0
 10
41.986048
 20
10.652372
 30
0.0
 10
42.513392
 20
13.320340
 30
0.0
 10
44.095424
 20
15.168004
 30
0.0
 10
46.821984
 20
16.246124
 30
0.0
 10
50.751672
 20
16.605500
 30
0.0
 10
52.400112
 20
16.605500
 30
0.0
 10
54.048552
 20
16.605500
 30
0.0
 10
54.048552
 20
16.824252
 30
0.0
 10
54.048552
 20
17.043004
 30
0.0
 10
53.786832
 20
18.191436
 30
0.0
 10
53.001672
 20
18.980500
 30
0.0
 10
51.661832
 20
19.449252
 30
0.0
 10
49.736048
 20
19.605500
 30
0.0
 10
48.001672
 20
19.515660
 30
0.0
 10
46.392296
 20
19.246124
 30
0.0
 10
44.900112
 20
18.796908
 30
0.0
 10
43.517296
 20
18.168004
 30
0.0
 10
43.517296
 20
20.300812
 30
0.0
 10
43.517296
 20
22.433628
 30
0.0
 10
45.318080
 20
22.816436
 30
0.0
 10
47.126672
 20
23.089876
 30
0.0
 10
48.939176
 20
23.265660
 30
0.0
 10
50.751672
 20
23.324220
 30
0.0
 10
54.825896
 20
22.855468
 30
0.0
 10
57.579800
 20
21.449220
 30
0.0
 10
59.161832
 20
19.003908
 30
0.0
 10
59.689176
 20
15.386748
 30
0.0
  0
LWPOLYLINE
  5
10a
100
AcDbEntity
  8
Layer_1
 62
7
100
AcDbPolyline
 90
30
 70
1
 10
82.454800
 20
16.058628
 30
0.0
 10
82.454800
 20
5.402372
 30
0.0
 10
76.829800
 20
5.402372
 30
0.0
 10
76.829800
 20
7.136748
 30
0.0
 10
76.829800
 20
13.558628
 30
0.0
 10
76.802440
 20
15.472692
 30
0.0
 10
76.720408
 20
16.683628
 30
0.0
 10
76.587592
 20
17.429724
 30
0.0
 10
76.376656
 20
17.949252
 30
0.0
 10
75.989936
 20
18.433628
 30
0.0
 10
75.486032
 20
18.793004
 30
0.0
 10
74.884472
 20
19.027372
 30
0.0
 10
74.204784
 20
19.105532
 30
0.0
 10
72.642280
 20
18.765684
 30
0.0
 10
71.454784
 20
17.746156
 30
0.0
 10
70.704784
 20
16.140684
 30
0.0
 10
70.454784
 20
14.011780
 30
0.0
 10
70.454784
 20
5.402404
 30
0.0
 10
64.861032
 20
5.402404
 30
0.0
 10
64.861032
 20
22.902404
 30
0.0
 10
70.454784
 20
22.902404
 30
0.0
 10
70.454784
 20
20.339908
 30
0.0
 10
71.759472
 20
21.668028
 30
0.0
 10
73.142280
 20
22.589908
 30
0.0
 10
74.638376
 20
23.140692
 30
0.0
 10
76.282912
 20
23.324284
 30
0.0
 10
78.946968
 20
22.859436
 30
0.0
 10
80.876656
 20
21.464908
 30
0.0
 10
82.060248
 20
19.183660
 30
0.0
 10
82.454800
 20
16.058628
 30
0.0
  0
ENDSEC
  0
SECTION
  2
OBJECTS
  0
DICTIONARY
  5
C
330
0
100
AcDbDictionary
  3
ACAD_GROUP
350
D
  3
ACAD_MLINESTYLE
350
17
  0
DICTIONARY
  5
D
330
C
100
AcDbDictionary
  0
DICTIONARY
  5
1A
330
C
100
AcDbDictionary
  0
DICTIONARY
  5
17
330
C
100
AcDbDictionary
  3
STANDARD
350
18
  0
DICTIONARY
  5
19
330
C
100
AcDbDictionary
  0
ENDSEC
  0
EOF
